#N canvas 1130 82 636 411 12;
#X obj 315 107 s;
#X msg 334 83 symbol \$1;
#X obj 334 57 r \$0-displaycanvas;
#X msg 265 81 label \$1;
#X obj 266 58 l2s;
#X obj 29 103 s \$0-canvas-input-state;
#X msg 29 77 1;
#X obj 266 28 r \$0-entire-inputtext;
#X obj 27 31 inlet;
#X obj 27 55 t b;
#N canvas 51 82 888 849 \$0-keyboard-handler 1;
#X obj 140 33 key;
#X floatatom 140 62 4 0 0 0 - - - 0;
#X obj 217 32 keyname;
#X symbolatom 278 32 14 0 0 0 - - - 0;
#X obj 175 32 keyup;
#X floatatom 175 61 4 0 0 0 - - - 0;
#X floatatom 217 61 4 0 0 0 - - - 0;
#N canvas 130 130 895 574 \$0-isitacombokey 0;
#X obj 41 5 inlet;
#X obj 21 91 bng 19 250 50 0 empty empty empty 0 -10 0 12 #fcfcfc #000000 #000000;
#X obj 110 89 bng 19 250 50 0 empty empty empty 0 -10 0 12 #fcfcfc #000000 #000000;
#X obj 177 89 bng 19 250 50 0 empty empty empty 0 -10 0 12 #fcfcfc #000000 #000000;
#X obj 243 89 bng 19 250 50 0 empty empty empty 0 -10 0 12 #fcfcfc #000000 #000000;
#X obj 44 150 route bang;
#X obj 88 179 key;
#X obj 88 202 route 0;
#X obj 174 181 route 0;
#X obj 174 158 keyup;
#X obj 120 281 spigot 0;
#X msg 174 230 1;
#X obj 174 256 tgl 19 0 empty empty empty 0 -10 0 12 #fcfcfc #000000 #000000 0 1;
#X msg 88 252 0;
#X obj 173 303 bng 19 250 50 0 empty empty empty 0 -10 0 12 #fcfcfc #000000 #000000;
#X obj 120 356 tgl 19 0 empty empty empty 0 -10 0 12 #fcfcfc #000000 #000000 0 1;
#X msg 120 331 1;
#X msg 154 330 0;
#X obj 67 381 spigot 0;
#X obj 44 197 once;
#X obj 174 204 t b b b;
#X obj 44 174 t b;
#X obj 66 409 bng 19 250 50 0 empty empty empty 0 -10 0 12 #fcfcfc #000000 #000000;
#X obj 88 227 t b b b;
#X obj 120 305 t b b;
#X obj 44 51 route Shift_L Shift_R Control_L Control_R Return;
#N canvas 414 374 637 180 \$0-sortcombokeyevent-return 0;
#N canvas 161 222 515 435 \$0-ifcombokeykeydown 0;
#X obj 171 143 inlet;
#X obj 60 145 keyname;
#X msg 106 245 1;
#X obj 106 223 t b;
#X obj 171 295 tgl 19 0 empty empty empty 0 -10 0 12 #fcfcfc #000000 #000000 0 1;
#X msg 106 168 \$1;
#X obj 119 321 spigot 0;
#X msg 171 166 0;
#X msg 206 271 0;
#X obj 254 274 tgl 19 0 empty empty empty 0 -10 0 12 #fcfcfc #000000 #000000 0 1;
#X obj 203 296 spigot 0;
#X obj 254 165 inlet;
#X obj 119 296 inlet;
#X obj 119 345 outlet;
#X obj 106 192 route Shift_L Shift_R Control_L Control_R;
#X obj 206 245 t b;
#X text 44 20 This need to be edited depending on the action required for the key combo.;
#X text 46 58 Currently Control_L and Control_R are disabled. Make sure the last outlet is connected to the keys you wish to disable for a particualr key combo.;
#X connect 0 0 7 0;
#X connect 1 1 5 0;
#X connect 2 0 4 0;
#X connect 3 0 2 0;
#X connect 4 0 6 1;
#X connect 5 0 14 0;
#X connect 6 0 13 0;
#X connect 7 0 4 0;
#X connect 8 0 10 0;
#X connect 9 0 10 1;
#X connect 10 0 4 0;
#X connect 11 0 9 0;
#X connect 12 0 6 0;
#X connect 14 0 3 0;
#X connect 14 1 3 0;
#X connect 14 2 15 0;
#X connect 14 3 15 0;
#X connect 14 4 15 0;
#X connect 15 0 8 0;
#X restore 41 69 pd \$0-ifcombokeykeydown;
#X obj 41 17 inlet;
#X obj 123 98 outlet;
#X obj 40 96 outlet;
#X text 210 69 << May need editing for desired event per key combo.;
#N canvas 78 78 450 429 \$0-arekeysready 0;
#X obj 77 33 inlet;
#X obj 82 389 outlet;
#X obj 103 134 key;
#X obj 103 157 route 0;
#X obj 188 112 keyup;
#X obj 135 236 spigot 0;
#X msg 189 185 1;
#X obj 189 211 tgl 19 0 empty empty empty 0 -10 0 12 #fcfcfc #000000 #000000 0 1;
#X msg 103 207 0;
#X obj 135 311 tgl 19 0 empty empty empty 0 -10 0 12 #fcfcfc #000000 #000000 0 1;
#X msg 135 286 1;
#X msg 169 285 0;
#X obj 82 336 spigot 0;
#X obj 103 182 t b b b;
#X obj 135 260 t b b;
#X obj 82 109 once;
#X obj 189 136 route 0;
#X obj 237 316 tgl 19 0 empty empty empty 0 -10 0 12 #fcfcfc #000000 #000000 0 1;
#X obj 192 342 spigot 0;
#X msg 255 280 1;
#X msg 218 276 0;
#X obj 189 159 t b b b b b;
#X obj 82 81 t b b b;
#X obj 138 390 outlet;
#X obj 194 388 outlet;
#X obj 252 388 outlet;
#X obj 80 57 route bang;
#X connect 0 0 26 0;
#X connect 2 0 3 0;
#X connect 3 0 13 0;
#X connect 4 0 16 0;
#X connect 5 0 14 0;
#X connect 6 0 7 0;
#X connect 7 0 5 1;
#X connect 8 0 7 0;
#X connect 9 0 12 1;
#X connect 10 0 9 0;
#X connect 11 0 9 0;
#X connect 12 0 1 0;
#X connect 13 0 8 0;
#X connect 13 1 5 0;
#X connect 13 2 20 0;
#X connect 14 0 10 0;
#X connect 14 1 15 1;
#X connect 14 1 20 0;
#X connect 15 0 12 0;
#X connect 16 0 21 0;
#X connect 17 0 18 1;
#X connect 17 0 25 0;
#X connect 18 0 24 0;
#X connect 19 0 17 0;
#X connect 20 0 17 0;
#X connect 20 0 23 0;
#X connect 21 0 6 0;
#X connect 21 1 11 0;
#X connect 21 2 15 1;
#X connect 21 3 19 0;
#X connect 22 0 23 0;
#X connect 22 1 15 0;
#X connect 22 2 18 0;
#X connect 26 0 22 0;
#X restore 41 45 pd \$0-arekeysready;
#X connect 0 0 3 0;
#X connect 1 0 5 0;
#X connect 5 0 0 0;
#X connect 5 1 0 1;
#X connect 5 2 2 0;
#X connect 5 3 0 2;
#X restore 310 87 pd \$0-sortcombokeyevent-return;
#X obj 290 110 bng 19 250 50 0 empty empty combo\ key\ function 30 10 0 12 #fcfcfc #000000 #000000;
#X obj 532 86 bng 19 250 50 0 empty empty normal\ key\ function 30 10 0 12 #fcfcfc #000000 #000000;
#X obj 362 233 outlet;
#X msg 518 158 symbol Return;
#X obj 518 135 t b;
#X obj 310 135 t b;
#X msg 310 158 symbol n/;
#X obj 406 52 t a;
#X msg 365 211 \$1;
#X obj 462 211 outlet;
#X obj 365 189 s2l;
#X connect 0 0 25 0;
#X connect 5 0 21 0;
#X connect 6 0 7 0;
#X connect 7 0 23 0;
#X connect 8 0 20 0;
#X connect 9 0 8 0;
#X connect 10 0 14 0;
#X connect 10 0 24 0;
#X connect 11 0 12 0;
#X connect 12 0 10 1;
#X connect 13 0 12 0;
#X connect 15 0 18 1;
#X connect 16 0 15 0;
#X connect 17 0 15 0;
#X connect 18 0 22 0;
#X connect 19 0 18 0;
#X connect 20 0 11 0;
#X connect 20 1 17 0;
#X connect 21 0 19 0;
#X connect 23 0 13 0;
#X connect 23 1 10 0;
#X connect 24 0 16 0;
#X connect 24 1 19 1;
#X connect 25 0 1 0;
#X connect 25 0 5 0;
#X connect 25 1 2 0;
#X connect 25 2 3 0;
#X connect 25 3 4 0;
#X connect 25 4 26 0;
#X connect 25 5 34 0;
#X connect 26 0 27 0;
#X connect 26 0 32 0;
#X connect 26 1 28 0;
#X connect 26 1 31 0;
#X connect 30 0 37 0;
#X connect 31 0 30 0;
#X connect 32 0 33 0;
#X connect 33 0 37 0;
#X connect 34 0 36 0;
#X connect 35 0 29 0;
#X connect 37 0 35 0;
#X restore 261 179 pd \$0-isitacombokey;
#X msg 262 149 \$1;
#X obj 262 127 s2l;
#X obj 426 257 bng 19 250 50 0 empty empty ??\ -\ print\ screen 25 10 0 12 #fcfcfc #000000 #000000;
#X obj 533 298 bng 19 250 50 0 empty empty ??\ -\ alt_r 25 10 0 12 #fcfcfc #000000 #000000;
#X obj 519 276 bng 19 250 50 0 empty empty ??\ -\ alt_l 25 10 0 12 #fcfcfc #000000 #000000;
#X obj 540 453 l2s;
#X obj 540 476 spigot 0;
#X obj 593 453 tgl 19 0 empty empty empty 0 -10 0 12 #fcfcfc #000000 #000000 0 1;
#X obj 593 430 r \$0-canvas-input-state;
#X obj 543 527 s \$0-appendto-inputtext;
#X obj 197 270 r \$0-appendto-inputtext;
#X obj 197 502 list append, f 14;
#X obj 306 501 t l;
#X obj 292 471 list prepend;
#X listbox 514 674 60 0 0 0 - - - 0;
#X obj 380 440 bng 19 250 50 0 empty empty Clear 25 10 0 10 #dfdfdf #606060 #000000;
#X obj 156 427 t b;
#X obj 156 362 r \$0-normal-retrun;
#X obj 198 313 s2l;
#X obj 198 336 t b a;
#X obj 135 94 t b;
#X obj 542 502 once;
#X msg 315 400 symbol \, bang;
#X obj 101 612 list split 2, f 15;
#X obj 219 566 list length;
#X obj 50 663 l2s, f 4;
#X obj 101 587 s2l;
#X obj 103 562 symbol;
#X msg 100 540 bang;
#X obj 102 637 route bang;
#X obj 219 591 - 1;
#X obj 65 467 once;
#X obj 91 442 t b;
#X obj 89 397 keyup;
#X obj 90 419 route 8;
#X obj 277 661 t b a b;
#X obj 293 375 t b b b;
#X msg 477 369 symbol $p@ce;
#X msg 656 318 0;
#X obj 656 345 s \$0-canvas-input-state;
#X obj 262 203 route Delete BackSpace Escape Insert Home End Prior Next Scroll_Lock Pause ?? Num_Lock Caps_Lock Tab Win_L Win_R Alt_L Alt_R Space Up Down Left Right Return n/;
#X msg 518 401 symbol n/;
#X obj 262 101 spigot 0;
#X obj 401 41 tgl 19 0 empty empty empty 0 -10 0 12 #fcfcfc #000000 #000000 0 1;
#X obj 401 18 r \$0-canvas-input-state;
#X obj 214 716 l2s;
#X msg 232 693 symbol;
#X msg 244 716 symbol $p@ce;
#X obj 214 748 s2l;
#X floatatom 227 623 5 0 0 0 - - - 0;
#X obj 70 492 t b b;
#X msg 701 319 symbol;
#X obj 214 771 outlet;
#X obj 98 761 outlet;
#X obj 656 295 t b b b b;
#X obj 738 588 outlet;
#X obj 370 776 outlet;
#X obj 356 717 l2s;
#X msg 388 694 symbol;
#X msg 417 726 symbol $p@ce;
#X obj 354 743 s2l;
#X obj 340 660 t a a b b;
#X obj 414 507 list length;
#X obj 413 529 == 1;
#X obj 206 526 t l l l l;
#X obj 414 552 tgl 19 0 empty empty empty 0 -10 0 12 #fcfcfc #000000 #000000 0 1;
#X obj 361 578 spigot 0;
#X obj 537 597 bng 19 250 50 0 empty empty empty 0 -10 0 12 #fcfcfc #000000 #000000;
#X msg 449 582 symbol;
#X obj 360 608 t b b b;
#X obj 400 478 route bang;
#X obj 47 688 route Return;
#X listbox 82 808 60 0 0 0 - - - 0;
#X obj 188 659 t a a b b a;
#X obj 426 41 bng 19 250 50 0 empty empty empty 0 -10 0 12 #fcfcfc #000000 #000000;
#X obj 423 133 f;
#X obj 422 89 spigot 0;
#X obj 494 73 tgl 19 0 empty empty empty 0 -10 0 12 #fcfcfc #000000 #000000 0 1;
#X msg 486 144 0;
#X obj 400 64 t b f f b;
#X msg 498 48 1;
#X obj 423 111 t b f b;
#X connect 0 0 1 0;
#X connect 0 0 28 0;
#X connect 2 0 6 0;
#X connect 2 1 3 0;
#X connect 2 1 50 0;
#X connect 4 0 5 0;
#X connect 7 0 48 0;
#X connect 7 1 48 0;
#X connect 8 0 7 0;
#X connect 9 0 8 0;
#X connect 13 0 14 0;
#X connect 14 0 29 0;
#X connect 15 0 14 1;
#X connect 16 0 15 0;
#X connect 18 0 26 0;
#X connect 19 0 72 0;
#X connect 20 0 78 0;
#X connect 21 0 20 0;
#X connect 21 0 19 1;
#X connect 23 0 21 1;
#X connect 24 0 19 0;
#X connect 25 0 24 0;
#X connect 26 0 27 0;
#X connect 27 0 19 0;
#X connect 27 1 21 0;
#X connect 28 0 29 1;
#X connect 29 0 17 0;
#X connect 30 0 21 0;
#X connect 30 0 29 0;
#X connect 31 0 37 0;
#X connect 32 0 38 0;
#X connect 33 0 79 0;
#X connect 34 0 31 0;
#X connect 35 0 34 0;
#X connect 36 0 35 0;
#X connect 37 0 32 0;
#X connect 37 1 22 0;
#X connect 37 1 81 0;
#X connect 38 0 31 1;
#X connect 38 0 57 0;
#X connect 39 0 58 0;
#X connect 40 0 39 1;
#X connect 41 0 42 0;
#X connect 42 0 40 0;
#X connect 43 0 19 0;
#X connect 43 1 21 0;
#X connect 43 2 21 1;
#X connect 44 0 58 0;
#X connect 44 1 30 0;
#X connect 44 2 21 1;
#X connect 45 0 14 0;
#X connect 46 0 47 0;
#X connect 48 0 44 0;
#X connect 48 1 39 0;
#X connect 48 10 10 0;
#X connect 48 16 12 0;
#X connect 48 17 11 0;
#X connect 48 18 45 0;
#X connect 48 23 62 0;
#X connect 48 24 49 0;
#X connect 48 25 13 0;
#X connect 49 0 14 0;
#X connect 50 0 9 0;
#X connect 51 0 82 0;
#X connect 51 0 87 0;
#X connect 52 0 51 0;
#X connect 53 0 56 0;
#X connect 54 0 53 1;
#X connect 55 0 56 1;
#X connect 56 0 60 0;
#X connect 58 0 36 0;
#X connect 58 1 74 0;
#X connect 59 0 19 0;
#X connect 62 0 46 0;
#X connect 62 1 36 0;
#X connect 62 2 59 0;
#X connect 62 3 63 0;
#X connect 65 0 68 0;
#X connect 66 0 65 1;
#X connect 67 0 68 1;
#X connect 68 0 64 0;
#X connect 69 1 65 0;
#X connect 69 2 67 0;
#X connect 69 3 66 0;
#X connect 70 0 71 0;
#X connect 71 0 73 0;
#X connect 72 0 22 0;
#X connect 72 0 33 0;
#X connect 72 1 32 0;
#X connect 72 2 69 0;
#X connect 72 3 70 0;
#X connect 73 0 74 1;
#X connect 74 0 76 0;
#X connect 74 0 77 0;
#X connect 76 0 75 0;
#X connect 76 0 64 0;
#X connect 77 0 36 0;
#X connect 77 1 30 0;
#X connect 77 2 21 1;
#X connect 78 1 21 1;
#X connect 79 1 35 1;
#X connect 81 0 33 0;
#X connect 81 0 80 0;
#X connect 81 1 53 0;
#X connect 81 2 55 0;
#X connect 81 3 54 0;
#X connect 81 4 43 0;
#X connect 83 0 61 0;
#X connect 84 0 89 0;
#X connect 85 0 84 1;
#X connect 86 0 85 0;
#X connect 87 1 84 0;
#X connect 87 2 50 1;
#X connect 87 3 88 0;
#X connect 88 0 85 0;
#X connect 89 0 83 0;
#X connect 89 1 83 1;
#X connect 89 2 86 0;
#X restore 38 133 pd \$0-keyboard-handler;
#X obj 201 189 outlet;
#X obj 96 189 outlet;
#X obj 40 196 outlet;
#X obj 150 189 outlet;
#X connect 1 0 0 1;
#X connect 2 0 1 0;
#X connect 3 0 0 0;
#X connect 4 0 3 0;
#X connect 6 0 5 0;
#X connect 7 0 4 0;
#X connect 8 0 9 0;
#X connect 9 0 6 0;
#X connect 10 0 12 0;
#X connect 10 1 11 0;
#X connect 10 2 14 0;
#X connect 10 3 13 0;
